{"title":"[OOTR] Naruto Shippuuden Episodes 47-79 Manga Edit  MP4","uid":7976359,"size":1196644413,"categoryP":"video","categoryS":"tv_shows","magnet":"?xt=urn:btih:2ed50cad4a38fb600481aefa746323f410b6a7df&amp;dn=%5BOOTR%5D+Naruto+Shippuuden+Episodes+47-79+Manga+Edit++MP4&amp;tr=udp%3A%2F%2Ftracker.openbittorrent.com%3A80&amp;tr=udp%3A%2F%2Fopen.demonii.com%3A1337&amp;tr=udp%3A%2F%2Ftracker.coppersurfer.tk%3A6969&amp;tr=udp%3A%2F%2Fexodus.desync.com%3A6969","seeders":1,"leechers":0,"uploader":"OOTR","files":1,"time":1356999266,"description":"Naruto Shippuuden Episodes 47-79 \n\nMANGA EDIT  \n\n\nWhile I have striven to make this contiguous there are some noticeable jumps between some scenes.\n\nSome parts might seem odd because they are &quot;out of anime&quot; order, where a scene in the manga may follow all at one time, that same scene could be broken up and otherwise presented in the anime timeline.  Some stuff isn't in the manga.  I tried to keep all the fun fight scenes cut in, even if they weren't detailed in the manga.  In the same sense I tried to remove any extraneous backstory or flashbacks, because we've all seen the show and know the backstory...besides the fact that its already over 4hrs long.  Some parts flow better in the anime presentation.  \n\nOne key thing you should notice is that most of the fight scenes are much more coherent and do not jump back and forth between different battles and have the small &quot;repeats&quot; removed.\n\nFormat                                   : MPEG-4\nCodec ID                                 : M4V \nFile size                                : 1.11 GiB\nDuration                                 : 4h 17mn\nOverall bit rate mode                    : Variable\nOverall bit rate                         : 620 Kbps\nEncoded date                             : UTC 2012-12-31 15:57:08\nTagged date                              : UTC 2012-12-31 15:57:08\n\nVideo\nID                                       : 1\nFormat                                   : AVC\nFormat/Info                              : Advanced Video Codec\nFormat profile                           : &lt;a class=&quot;__cf_email__&quot; href=&quot;/cdn-cgi/l/email-protection&quot; data-cfemail=&quot;d694b7a5b3babfb8b3969ae5f8e6&quot;&gt;[email&amp;#160;protected]&lt;/a&gt;&lt;script cf-hash='f9e31' type=&quot;text/javascript&quot;&gt;\n/* &lt;![CDATA[ */!function(){try{var t=&quot;currentScript&quot;in document?document.currentScript:function(){for(var t=document.getElementsByTagName(&quot;script&quot;),e=t.length;e--;)if(t[e].getAttribute(&quot;cf-hash&quot;))return t[e]}();if(t&amp;&amp;t.previousSibling){var e,r,n,i,c=t.previousSibling,a=c.getAttribute(&quot;data-cfemail&quot;);if(a){for(e=&quot;&quot;,r=parseInt(a.substr(0,2),16),n=2;a.length-n;n+=2)i=parseInt(a.substr(n,2),16)^r,e+=String.fromCharCode(i);e=document.createTextNode(e),c.parentNode.replaceChild(e,c)}}}catch(u){}}();/* ]]&gt; */&lt;/script&gt;\nFormat settings, CABAC                   : No\nFormat settings, ReFrames                : 2 frames\nCodec ID                                 : avc1\nCodec ID/Info                            : Advanced Video Coding\nDuration                                 : 4h 17mn\nSource duration                          : 4h 17mn\nBit rate mode                            : Variable\nBit rate                                 : 493 Kbps\nWidth                                    : 640 pixels\nHeight                                   : 480 pixels\nDisplay aspect ratio                     : 4:3\nFrame rate mode                          : Variable\nFrame rate                               : 23.976 fps\nMinimum frame rate                       : 23.976 fps\nMaximum frame rate                       : 24.000 fps\nStandard                                 : NTSC\nColor space                              : YUV\nChroma subsampling                       : 4:2:0\nBit depth                                : 8 bits\nScan type                                : Progressive\nBits/(Pixel*Frame)                       : 0.067\nStream size                              : 906 MiB (79%)\nSource stream size                       : 906 MiB (79%)\nLanguage                                 : English\nEncoded date                             : UTC 2012-12-31 15:57:08\n\nAudio\nID                                       : 2\nFormat                                   : AAC\nFormat/Info                              : Advanced Audio Codec\nFormat profile                           : LC\nCodec ID                                 : 40\nDuration                                 : 4h 17mn\nBit rate mode                            : Variable\nBit rate                                 : 126 Kbps\nMaximum bit rate                         : 214 Kbps\nChannel(s)                               : 2 channels\nChannel positions                        : Front: L R\nSampling rate                            : 44.1 KHz\nCompression mode                         : Lossy\nStream size                              : 231 MiB (20%)","torrent":{"xt":"urn:btih:2ed50cad4a38fb600481aefa746323f410b6a7df","amp;dn":"%5BOOTR%5D+Naruto+Shippuuden+Episodes+47-79+Manga+Edit++MP4","amp;tr":["udp%3A%2F%2Ftracker.openbittorrent.com%3A80","udp%3A%2F%2Fopen.demonii.com%3A1337","udp%3A%2F%2Ftracker.coppersurfer.tk%3A6969","udp%3A%2F%2Fexodus.desync.com%3A6969"],"infoHash":"2ed50cad4a38fb600481aefa746323f410b6a7df","infoHashBuffer":{"type":"Buffer","data":[46,213,12,173,74,56,251,96,4,129,174,250,116,99,35,244,16,182,167,223]},"announce":[],"urlList":[]}}